<svg width="24" height="24" viewBox="0 0 24 24" fill="none" xmlns="http://www.w3.org/2000/svg">
<path fill-rule="evenodd" clip-rule="evenodd" d="M20 7.82843C20 7.298 19.7893 6.78929 19.4143 6.41422L15.5858 2.58578C15.2108 2.21071 14.702 2 14.1716 2H6C4.89543 2 4 2.89543 4 4V20C4 21.1046 4.89543 22 6 22H18C19.1046 22 20 21.1046 20 20V7.82843ZM12.9317 10.4142L14.4094 12.0001C14.7733 12.3906 15.3632 12.3906 15.7271 12.0001C16.091 11.6096 16.091 10.9764 15.7271 10.5859L12.6588 7.29289C12.2949 6.90239 11.7049 6.90239 11.3411 7.29289L8.27291 10.5857C7.90903 10.9762 7.90903 11.6094 8.27291 11.9999C8.63679 12.3904 9.22676 12.3904 9.59064 11.9999L11.0681 10.4142V16C11.0681 16.5523 11.4853 17 11.9999 17C12.5145 17 12.9317 16.5523 12.9317 16V10.4142Z" fill="#EE7202"/>
</svg>
